<svg id="Capa_1" enable-background="new 0 0 512 512" height="512" viewBox="0 0 512 512" width="512" xmlns="http://www.w3.org/2000/svg"><g><g><path d="m468.134 347.112c4.142 0 7.5-3.357 7.5-7.5v-97.755c0-2.378-1.11-4.493-2.836-5.867l-57.779-46.778v-39.507c0-4.143-3.358-7.5-7.5-7.5s-7.5 3.357-7.5 7.5v133.712l-144.019 107.672-144.02-107.672v-238.117h258.489c2.997 14.841 14.712 26.558 29.551 29.559v39.784c0 4.143 3.358 7.5 7.5 7.5s7.5-3.357 7.5-7.5v-39.783c17.267-3.487 30.309-18.776 30.309-37.056 0-20.845-16.959-37.804-37.805-37.804-18.277 0-33.563 13.037-37.054 30.3h-265.99c-4.142 0-7.5 3.357-7.5 7.5v151.412l-57.779 46.778c-1.726 1.374-2.836 3.489-2.836 5.867v88.183c0 4.143 3.358 7.5 7.5 7.5s7.5-3.357 7.5-7.5v-73.211l145.207 108.559-145.206 122.936v-123.226c0-4.143-3.358-7.5-7.5-7.5s-7.5 3.357-7.5 7.5v139.402c0 4.143 3.358 7.5 7.5 7.5h424.269c4.142 0 7.5-3.357 7.5-7.5v-129.821c0-4.143-3.358-7.5-7.5-7.5s-7.5 3.357-7.5 7.5v113.645l-145.208-122.936 145.207-108.559v82.784c0 4.142 3.358 7.499 7.5 7.499zm-60.61-332.112c12.575 0 22.805 10.23 22.805 22.805s-10.23 22.805-22.805 22.805c-12.574 0-22.803-10.229-22.805-22.802 0-.003 0-.005 0-.008 0-.002 0-.003 0-.005.006-12.57 10.234-22.795 22.805-22.795zm7.496 193.512 40.9 33.113-40.9 30.578zm-318.04 63.69-40.9-30.578 40.9-33.113zm350.689 224.798h-383.338l144.569-122.396 42.609 31.855c1.332.995 2.911 1.493 4.491 1.493s3.159-.498 4.491-1.493l42.609-31.855z"/><path d="m374.618 78.211c0-4.143-3.358-7.5-7.5-7.5h-222.236c-4.142 0-7.5 3.357-7.5 7.5v30.306c0 4.143 3.358 7.5 7.5 7.5h222.235c4.142 0 7.5-3.357 7.5-7.5v-30.306zm-15 22.806h-207.236v-15.306h207.235v15.306z"/><path d="m367.118 137.382h-181.829c-4.142 0-7.5 3.357-7.5 7.5s3.358 7.5 7.5 7.5h181.829c4.142 0 7.5-3.357 7.5-7.5s-3.358-7.5-7.5-7.5z"/><path d="m367.118 163.646h-222.236c-4.142 0-7.5 3.357-7.5 7.5s3.358 7.5 7.5 7.5h222.235c4.142 0 7.5-3.357 7.5-7.5s-3.357-7.5-7.499-7.5z"/><path d="m367.118 189.91h-222.236c-4.142 0-7.5 3.357-7.5 7.5s3.358 7.5 7.5 7.5h222.235c4.142 0 7.5-3.357 7.5-7.5s-3.357-7.5-7.499-7.5z"/><path d="m367.118 216.175h-222.236c-4.142 0-7.5 3.357-7.5 7.5s3.358 7.5 7.5 7.5h222.235c4.142 0 7.5-3.357 7.5-7.5s-3.357-7.5-7.499-7.5z"/><path d="m144.882 242.439c-4.142 0-7.5 3.357-7.5 7.5s3.358 7.5 7.5 7.5h131.321c4.142 0 7.5-3.357 7.5-7.5s-3.358-7.5-7.5-7.5z"/><path d="m367.118 271.733h-50.508c-4.142 0-7.5 3.357-7.5 7.5s3.358 7.5 7.5 7.5h50.508c4.142 0 7.5-3.357 7.5-7.5s-3.358-7.5-7.5-7.5z"/></g></g></svg>