<svg id="Capa_1" enable-background="new 0 0 511.895 511.895" height="512" viewBox="0 0 511.895 511.895" width="512" xmlns="http://www.w3.org/2000/svg"><path d="m441.947 455v-168.105c0-8.284-6.716-15-15-15h-120c-8.284 0-15 6.716-15 15v168.105z" fill="#f6efea"/><path d="m426.947 271.895h-60v183.105h75v-168.105c0-8.285-6.716-15-15-15z" fill="#eee1dc"/><path d="m441.9 286c-.982-36.006-17.769-64.646-27.898-78.736-12.019-16.72-31.554-36.244-47.055-36.244-15.502 0-35.037 19.524-47.056 36.244-10.129 14.091-26.916 42.73-27.898 78.736z" fill="#ffde46"/><path d="m235.947 460v-217.105c0-2.61-.681-5.176-1.977-7.442l-22.023-38.542v-56.892c0-1.692-.286-3.372-.847-4.968 0 0-2.823-8.049-7.032-20.051h-102.242l-7.032 20.051c-.561 1.596-.847 3.276-.847 4.968v56.892l-22.023 38.542c-1.295 2.266-1.977 4.832-1.977 7.442v217.105z" fill="#f6efea"/><path d="m233.971 235.453-22.023-38.542v-56.892c0-1.692-.286-3.372-.847-4.968 0 0-2.823-8.049-7.032-20.051h-51.122v345h83v-217.105c0-2.611-.681-5.176-1.976-7.442z" fill="#eee1dc"/><path d="m69.947 452v44.893c0 8.284 6.716 15 15 15h136c8.284 0 15-6.716 15-15v-44.893z" fill="#ffde46"/><path d="m156.557.417c-2.759-.653-5.738-.54-8.433.342-4.347 1.422-7.948 4.89-9.486 9.273l-39.968 113.968h108.555c-10.708-30.535-39.936-113.877-39.968-113.968-1.65-4.703-5.876-8.473-10.7-9.615z" fill="#ffde46"/><path clip-rule="evenodd" d="m291.947 452v29.895c0 16.542 13.458 30 30 30h90c16.542 0 30-13.458 30-30v-29.895z" fill="#ffde46" fill-rule="evenodd"/><g fill="#fdbf00"><path d="m152.947 124h54.278c-10.708-30.535-39.936-113.877-39.968-113.968-1.651-4.703-5.876-8.473-10.701-9.615-1.176-.278-2.392-.409-3.609-.409z"/><path d="m152.947 452v59.893h68c8.284 0 15-6.716 15-15v-44.893z"/><path d="m366.947 286h74.953c-.982-36.006-17.769-64.646-27.898-78.736-12.019-16.72-31.554-36.244-47.055-36.244z"/><path clip-rule="evenodd" d="m366.947 452v59.895h45c16.542 0 30-13.458 30-30v-29.895z" fill-rule="evenodd"/></g></svg>